<svg width="42" height="42" viewBox="0 0 42 42" fill="none" xmlns="http://www.w3.org/2000/svg">
<path opacity="0.1" d="M37 0H5C2.23858 0 0 2.23858 0 5V37C0 39.7614 2.23858 42 5 42H37C39.7614 42 42 39.7614 42 37V5C42 2.23858 39.7614 0 37 0Z" fill="#BB6CDB"/>
<path d="M11.6087 10C10.176 10 9 11.1806 9 12.619V25.1905C9 26.6289 10.176 27.8095 11.6087 27.8095H13.7446C13.8159 28.4397 13.8077 29.0229 13.6467 29.5119C13.449 30.1135 13.0802 30.6189 12.3913 31.0342C12.1977 31.157 12.108 31.3923 12.1671 31.6133C12.2262 31.8343 12.4239 31.9918 12.6522 32C14.8655 32 17.4029 30.8398 18.6848 27.8095H30.3913C31.824 27.8095 33 26.6289 33 25.1905V12.619C33 11.1806 31.824 10 30.3913 10H11.6087ZM11.6087 11.0476H30.3913C31.2554 11.0476 31.9565 11.7515 31.9565 12.619V25.1905C31.9565 26.058 31.2554 26.7619 30.3913 26.7619H18.3913C18.1732 26.7619 17.9776 26.899 17.9022 27.1057C17.091 29.3278 15.642 30.3856 14.1359 30.7723C14.3397 30.4797 14.5333 30.1708 14.6413 29.8393C14.9124 29.0126 14.8899 28.1083 14.7228 27.1875C14.676 26.944 14.466 26.766 14.2174 26.7619H11.6087C10.7446 26.7619 10.0435 26.058 10.0435 25.1905V12.619C10.0435 11.7515 10.7446 11.0476 11.6087 11.0476Z" fill="#BB6CDB"/>
</svg>
