<svg width="42" height="42" viewBox="0 0 42 42" fill="none" xmlns="http://www.w3.org/2000/svg">
<path opacity="0.1" d="M37 0H5C2.23858 0 0 2.23858 0 5V37C0 39.7614 2.23858 42 5 42H37C39.7614 42 42 39.7614 42 37V5C42 2.23858 39.7614 0 37 0Z" fill="#F4AD8F"/>
<path d="M13 9V31.0786H20.7586C20.9226 31.0804 21.0759 30.9942 21.1597 30.8505C21.2417 30.7067 21.2417 30.5306 21.1597 30.3869C21.0759 30.2432 20.9226 30.1569 20.7586 30.1587H13.9128V9.91994H22.1277V16.3595H28.5171V21.4192C28.5153 21.5845 28.6009 21.7391 28.7435 21.8235C28.8862 21.9062 29.0609 21.9062 29.2035 21.8235C29.3461 21.7391 29.4317 21.5845 29.4299 21.4192V15.7127L29.3015 15.569L22.9121 9.12937L22.7695 9H13ZM23.0405 10.5812L27.8611 15.4396H23.0405V10.5812ZM32.1254 20.4562C31.6459 20.4562 31.1645 20.6341 30.7991 21.0024L30.4853 21.333L30.4996 21.3474L23.4541 28.4482C23.3953 28.5021 23.3507 28.5722 23.3257 28.6494L22.5556 31.4093C22.5092 31.5692 22.5502 31.7417 22.6661 31.862C22.782 31.9806 22.9514 32.0273 23.1118 31.9842L25.8501 31.2511C25.9268 31.226 25.9963 31.1811 26.0498 31.1218L33.2664 23.906C33.3234 23.8557 33.368 23.791 33.3948 23.7191L33.4518 23.676C34.1827 22.9393 34.1827 21.7391 33.4518 21.0024C33.0863 20.6341 32.605 20.4562 32.1254 20.4562ZM31.1413 21.9942L32.5105 23.3741L25.5078 30.3887L24.1672 29.0806L24.1815 29.0231L31.1413 21.9942Z" fill="#F4AD8F"/>
</svg>
