<svg width="42" height="42" viewBox="0 0 42 42" fill="none" xmlns="http://www.w3.org/2000/svg">
<path opacity="0.1" d="M37 0H5C2.23858 0 0 2.23858 0 5V37C0 39.7614 2.23858 42 5 42H37C39.7614 42 42 39.7614 42 37V5C42 2.23858 39.7614 0 37 0Z" fill="#4A63FF"/>
<path d="M13 9V31H29V15.4154L22.9601 9H13ZM13.8889 9.95652H22.3333V16.1739H28.1111V30.0435H13.8889V9.95652ZM23.2222 10.6216L27.5486 15.2174H23.2222V10.6216ZM24.7778 18.2458C24.3142 18.2476 23.9375 18.6399 23.9375 19.1238C23.9392 19.6077 24.3142 20 24.7778 20C25.2413 20 25.6163 19.6077 25.6181 19.1238C25.6181 18.6399 25.2413 18.2476 24.7778 18.2458ZM19.2969 19.5217C19.1493 19.5161 19.0087 19.5871 18.9219 19.716L15.6059 24.5379C15.5069 24.6836 15.4913 24.876 15.566 25.0367C15.6424 25.1992 15.7951 25.3001 15.9635 25.3001H22.5226C22.533 25.3001 22.5434 25.3001 22.5538 25.3001C22.5556 25.3001 22.5556 25.3001 22.5573 25.3001L25.4514 25.2609C25.6215 25.259 25.7743 25.1506 25.8472 24.9844C25.9184 24.8181 25.8958 24.6238 25.7899 24.4818L22.8976 20.6632C22.8125 20.5493 22.6823 20.4839 22.5469 20.4857C22.4063 20.4895 22.276 20.5623 22.1944 20.6838L21.2465 22.0868L19.6389 19.7179C19.5573 19.6002 19.4323 19.5273 19.2969 19.5217ZM19.2778 20.8071L20.8906 23.1853C20.8924 23.189 20.8941 23.1909 20.8958 23.1928L21.6771 24.3436H16.8455L19.2778 20.8071ZM22.5729 21.7486L24.5191 24.3174L22.7778 24.3417L21.7986 22.8995L22.5729 21.7486Z" fill="#4A63FF"/>
</svg>
