<?xml version="1.0" standalone="no"?>
<!DOCTYPE svg PUBLIC "-//W3C//DTD SVG 20010904//EN"
 "http://www.w3.org/TR/2001/REC-SVG-20010904/DTD/svg10.dtd">
<svg version="1.0" xmlns="http://www.w3.org/2000/svg"
 width="512.000000pt" height="512.000000pt" viewBox="0 0 512.000000 512.000000"
 preserveAspectRatio="xMidYMid meet">
<metadata>
Created by potrace 1.14, written by Peter Selinger 2001-2017
</metadata>
<g transform="translate(0.000000,512.000000) scale(0.100000,-0.100000)"
fill="#000000" stroke="none">
<path d="M0 2560 l0 -2560 2560 0 2560 0 0 2560 0 2560 -2560 0 -2560 0 0
-2560z m1322 878 l3 -222 85 107 85 107 63 0 c34 0 62 -3 62 -6 0 -3 -43 -55
-96 -116 -95 -110 -95 -111 -77 -132 11 -11 50 -57 88 -101 38 -44 78 -90 89
-102 l19 -23 -70 0 -70 0 -89 111 -89 111 -3 -111 -3 -111 -54 0 -55 0 0 355
0 355 55 0 55 0 2 -222z m2758 -133 l0 -355 -60 0 -60 0 0 32 0 32 -27 -26
c-37 -35 -73 -48 -134 -48 -60 0 -95 17 -137 64 -39 44 -52 91 -52 181 1 80
16 130 55 181 64 83 201 99 273 32 l22 -21 0 141 0 142 60 0 60 0 0 -355z
m-3020 325 c11 -11 20 -29 20 -40 0 -28 -35 -60 -67 -60 -55 0 -83 61 -46 102
21 24 68 23 93 -2z m1846 -11 l44 -11 0 -58 0 -58 -32 16 c-43 21 -142 27
-198 12 -58 -16 -133 -89 -149 -145 -14 -50 -14 -139 0 -188 13 -49 63 -105
114 -128 55 -25 166 -25 223 1 l42 19 0 -54 0 -54 -56 -17 c-41 -12 -83 -15
-148 -12 -77 3 -99 8 -145 33 -211 115 -218 459 -12 596 30 20 70 41 90 46 50
14 173 15 227 2z m-2563 -260 l100 -256 100 246 c54 135 101 252 104 259 4 8
30 12 84 12 l79 0 0 -335 0 -335 -61 0 -61 0 3 273 4 273 -32 -86 c-18 -47
-66 -168 -107 -270 l-74 -185 -42 0 -42 0 -74 185 c-41 102 -89 223 -107 270
l-32 86 4 -273 3 -273 -56 0 -56 0 0 335 0 336 81 -3 82 -3 100 -256z m1647
59 c71 -36 110 -110 110 -210 l0 -48 -161 0 -162 0 6 -37 c9 -53 51 -89 116
-98 49 -7 114 6 136 26 21 20 35 8 35 -31 0 -34 -4 -42 -32 -57 -21 -10 -65
-18 -120 -21 -75 -4 -93 -1 -133 18 -80 39 -119 115 -118 230 0 76 21 131 66
179 68 71 173 91 257 49z m1416 -1 c84 -43 131 -140 122 -251 -12 -140 -104
-225 -243 -226 -79 0 -122 13 -167 50 -55 46 -81 108 -81 194 1 129 57 209
173 247 38 13 161 4 196 -14z m1099 4 c74 -33 104 -86 120 -208 l7 -53 -166 0
c-184 0 -180 2 -152 -65 9 -19 28 -41 48 -51 43 -23 132 -24 177 -1 48 24 51
22 51 -23 0 -38 -3 -42 -42 -60 -62 -28 -186 -27 -245 1 -78 38 -116 113 -115
229 0 77 20 131 65 179 65 68 169 90 252 52z m494 5 c6 -4 11 -28 11 -53 0
-39 -2 -44 -17 -38 -50 21 -113 25 -147 11 -30 -13 -36 -20 -36 -45 0 -29 6
-34 94 -76 74 -35 99 -53 116 -81 43 -68 11 -145 -75 -185 -50 -23 -170 -25
-220 -5 -33 14 -35 18 -35 60 0 26 2 46 4 46 2 0 23 -9 47 -20 71 -32 168 -24
183 16 14 35 -6 55 -100 100 -102 49 -124 73 -124 139 0 65 46 116 124 136 35
9 157 5 175 -5z m-3929 -236 l0 -240 -55 0 -55 0 0 240 0 240 55 0 55 0 0
-240z m879 -1057 c136 -210 248 -384 251 -386 3 -3 4 170 2 384 l-3 389 81 0
80 0 0 -505 0 -505 -92 0 -93 1 -245 380 c-135 209 -249 386 -255 394 -7 10
-9 -114 -7 -380 l2 -395 -80 0 -80 0 0 505 0 506 97 -3 97 -3 245 -382z m1206
312 l0 -70 -187 -3 -188 -2 0 -140 0 -140 175 0 175 0 0 -70 0 -70 -175 0
-175 0 0 -150 0 -150 200 0 200 0 0 -70 0 -70 -285 0 -285 0 0 505 0 505 273
-2 272 -3 0 -70z m855 0 l0 -75 -145 0 -145 0 0 -430 0 -430 -85 0 -85 0 0
430 0 429 -142 3 -143 3 -3 59 c-2 32 -1 65 2 72 4 12 72 14 376 14 l370 0 0
-75z m-2729 -794 c73 -73 -5 -184 -106 -151 -103 34 -75 180 35 180 33 0 48
-6 71 -29z"/>
<path d="M3788 3335 c-75 -42 -89 -199 -26 -271 26 -30 36 -34 78 -34 68 0
105 32 120 105 25 118 -16 203 -100 211 -29 3 -55 -1 -72 -11z"/>
<path d="M1865 3353 c-36 -9 -85 -68 -85 -103 0 -6 38 -10 105 -10 99 0 105 1
105 20 0 37 -28 77 -61 89 -18 6 -35 10 -38 10 -3 -1 -15 -4 -26 -6z"/>
<path d="M3212 3330 c-42 -26 -62 -74 -62 -147 0 -98 52 -157 136 -155 91 1
128 53 122 173 -3 73 -6 81 -35 110 -41 42 -112 50 -161 19z"/>
<path d="M4373 3345 c-32 -14 -56 -42 -68 -82 -6 -23 -6 -23 103 -23 l109 0
-5 28 c-8 41 -30 69 -64 81 -38 13 -36 13 -75 -4z"/>
</g>
</svg>
